<svg width="18" height="18" viewBox="0 0 18 18" fill="none" xmlns="http://www.w3.org/2000/svg">
<path d="M15.75 12.1875H11.25C10.9425 12.1875 10.6875 11.9325 10.6875 11.625C10.6875 11.3175 10.9425 11.0625 11.25 11.0625H15.75C16.0575 11.0625 16.3125 11.3175 16.3125 11.625C16.3125 11.9325 16.0575 12.1875 15.75 12.1875Z" fill="#727272"/>
<path d="M15.75 15.1875H11.25C10.9425 15.1875 10.6875 14.9325 10.6875 14.625C10.6875 14.3175 10.9425 14.0625 11.25 14.0625H15.75C16.0575 14.0625 16.3125 14.3175 16.3125 14.625C16.3125 14.9325 16.0575 15.1875 15.75 15.1875Z" fill="#727272"/>
<path d="M16.5 6.39V2.985C16.5 1.9275 16.02 1.5 14.8275 1.5H11.7975C10.605 1.5 10.125 1.9275 10.125 2.985V6.3825C10.125 7.4475 10.605 7.8675 11.7975 7.8675H14.8275C16.02 7.875 16.5 7.4475 16.5 6.39Z" fill="#727272"/>
<path d="M7.875 6.39V2.985C7.875 1.9275 7.395 1.5 6.2025 1.5H3.1725C1.98 1.5 1.5 1.9275 1.5 2.985V6.3825C1.5 7.4475 1.98 7.8675 3.1725 7.8675H6.2025C7.395 7.875 7.875 7.4475 7.875 6.39Z" fill="#727272"/>
<path d="M7.875 14.8275V11.7975C7.875 10.605 7.395 10.125 6.2025 10.125H3.1725C1.98 10.125 1.5 10.605 1.5 11.7975V14.8275C1.5 16.02 1.98 16.5 3.1725 16.5H6.2025C7.395 16.5 7.875 16.02 7.875 14.8275Z" fill="#727272"/>
</svg>
