<svg width="18" height="18" viewBox="0 0 18 18" fill="none" xmlns="http://www.w3.org/2000/svg">
<path d="M15.0297 5.11331L10.7097 2.09081C9.53219 1.26581 7.72469 1.31081 6.59219 2.18831L2.83469 5.12081C2.08469 5.70581 1.49219 6.90581 1.49219 7.85081V13.0258C1.49219 14.9383 3.04469 16.4983 4.95719 16.4983H13.0422C14.9547 16.4983 16.5072 14.9458 16.5072 13.0333V7.94831C16.5072 6.93581 15.8547 5.69081 15.0297 5.11331Z" fill="#727272"/>
<path d="M9 14.0625C8.6925 14.0625 8.4375 13.8075 8.4375 13.5V11.25C8.4375 10.9425 8.6925 10.6875 9 10.6875C9.3075 10.6875 9.5625 10.9425 9.5625 11.25V13.5C9.5625 13.8075 9.3075 14.0625 9 14.0625Z" fill="white"/>
</svg>
