<svg width="24" height="24" viewBox="0 0 24 24" fill="none" xmlns="http://www.w3.org/2000/svg">
<path d="M19 13C20.6569 13 22 11.6569 22 10C22 8.34315 20.6569 7 19 7C17.3431 7 16 8.34315 16 10C16 11.6569 17.3431 13 19 13Z" fill="white" stroke="#292D32" stroke-width="1.5" stroke-linecap="round" stroke-linejoin="round"/>
<path d="M19.3209 13.04L20.5909 15.16C21.3209 16.38 20.7409 17.96 19.3909 18.41C14.6109 20 9.44087 20 4.66087 18.41C3.22087 17.93 2.68087 16.47 3.46087 15.16L4.73087 13.04C5.08087 12.46 5.36087 11.44 5.36087 10.76V8.66C5.36087 4.98 8.34087 2 12.0209 2C15.6809 2 17.5 3.5 18.5 7" stroke="#292D32" stroke-width="1.5" stroke-miterlimit="10" stroke-linecap="round"/>
<path d="M15.3299 18.8203C15.3299 20.6503 13.8299 22.1503 11.9999 22.1503C11.0899 22.1503 10.2499 21.7703 9.64992 21.1703C9.04992 20.5703 8.66992 19.7303 8.66992 18.8203" stroke="#292D32" stroke-width="1.5" stroke-miterlimit="10"/>
</svg>
